<svg xmlns="http://www.w3.org/2000/svg" width="512" height="512" fill="none"><path fill="#fff" d="M0 75C0 33.579 33.579 0 75 0h362c41.421 0 75 33.579 75 75v362c0 41.421-33.579 75-75 75H75c-41.421 0-75-33.579-75-75V75Z"/><path fill="#000" d="M469.958 305.509c-8.573 0-14.289-4.607-14.289-11.518V144.246c0-6.912 5.716-11.519 14.289-11.519 8.574 0 14.289 4.607 14.289 11.519v149.745c0 6.911-5.715 11.518-14.289 11.518Z"/><path fill="#000" d="M255.624 247.915c-2.858 0-4.287 0-7.144-1.152L34.145 154.612C29.857 152.309 27 148.853 27 144.246c0-4.608 2.858-8.064 7.145-10.367L248.48 41.728c4.286-2.304 8.573-2.304 12.86 0l214.335 92.151c4.286 2.303 7.144 5.759 7.144 10.367 0 4.607-2.858 8.063-7.144 10.366L261.34 246.763c-1.429 1.152-2.858 1.152-5.716 1.152Z"/><path fill="#000" d="M275.629 266.346c-5.716 3.455-12.86 4.607-20.005 4.607-7.144 0-14.289-1.152-20.004-4.607l-122.886-51.835v44.923c0 35.709 70.016 69.114 142.89 69.114 72.874 0 142.89-33.405 142.89-69.114v-44.923l-122.885 51.835ZM207.91 470.869h-24.248l27.32-82.768h30.715l27.32 82.768h-24.249l-18.105-59.975h-.647l-18.106 59.975Zm-4.526-32.655h45.587v16.812h-45.587v-16.812ZM118.648 470.869v-82.768h35.726c6.143 0 11.518 1.212 16.126 3.637 4.607 2.425 8.19 5.833 10.75 10.225 2.559 4.391 3.839 9.524 3.839 15.397 0 5.928-1.32 11.06-3.96 15.398-2.614 4.338-6.292 7.679-11.033 10.023-4.715 2.344-10.225 3.516-16.53 3.516h-21.339v-17.459h16.813c2.64 0 4.89-.458 6.749-1.374 1.886-.943 3.327-2.277 4.324-4.001 1.024-1.724 1.536-3.759 1.536-6.103 0-2.371-.512-4.391-1.536-6.062-.997-1.697-2.438-2.99-4.324-3.879-1.859-.916-4.109-1.375-6.749-1.375h-7.921v64.825h-22.471ZM81.074 415.42c-.35-1.428-.902-2.68-1.657-3.758a10.33 10.33 0 0 0-2.829-2.789c-1.104-.781-2.398-1.36-3.88-1.738-1.454-.404-3.058-.606-4.809-.606-3.772 0-6.992.903-9.659 2.708-2.64 1.805-4.66 4.405-6.062 7.8-1.374 3.395-2.061 7.49-2.061 12.286 0 4.849.66 8.999 1.98 12.447 1.32 3.449 3.287 6.089 5.9 7.921 2.614 1.833 5.86 2.749 9.74 2.749 3.422 0 6.265-.499 8.528-1.496 2.29-.997 4.001-2.411 5.133-4.243 1.131-1.832 1.697-3.988 1.697-6.466l3.88.404H68.06v-16.004h36.696v11.477c0 7.544-1.603 13.997-4.81 19.359-3.179 5.334-7.57 9.43-13.174 12.286C81.195 470.585 74.797 472 67.576 472c-8.056 0-15.128-1.711-21.218-5.133-6.089-3.421-10.844-8.298-14.266-14.629C28.697 445.906 27 438.376 27 429.646c0-6.843 1.037-12.905 3.112-18.186 2.101-5.281 5.011-9.74 8.73-13.377a36.901 36.901 0 0 1 12.892-8.285c4.876-1.886 10.103-2.829 15.68-2.829 4.904 0 9.457.7 13.66 2.101 4.23 1.375 7.962 3.341 11.195 5.901 3.26 2.533 5.887 5.537 7.881 9.012 1.994 3.476 3.206 7.288 3.637 11.437H81.074ZM380.334 429.665c0 3.017-1.2 5.911-3.338 8.045a11.404 11.404 0 0 1-8.059 3.332h-18.995v18.963c0 3.018-1.2 5.912-3.338 8.045a11.405 11.405 0 0 1-16.117 0 11.363 11.363 0 0 1-3.339-8.045v-18.963h-18.995a11.404 11.404 0 0 1-8.058-3.332 11.367 11.367 0 0 1-3.339-8.045c0-3.018 1.201-5.912 3.339-8.046a11.408 11.408 0 0 1 8.058-3.332h18.995v-18.963c0-3.017 1.201-5.911 3.339-8.045a11.405 11.405 0 0 1 16.117 0 11.366 11.366 0 0 1 3.338 8.045v18.963h18.995c3.023 0 5.922 1.199 8.059 3.332a11.367 11.367 0 0 1 3.338 8.046ZM368.937 350.806h-60.784a11.405 11.405 0 0 0-8.058 3.333 11.363 11.363 0 0 0 0 16.09 11.404 11.404 0 0 0 8.058 3.332h60.784c3.023 0 5.922-1.198 8.059-3.332a11.366 11.366 0 0 0 0-16.09 11.405 11.405 0 0 0-8.059-3.333ZM409.801 433.182h60.784c3.022 0 5.921-1.199 8.059-3.333a11.367 11.367 0 0 0 0-16.09 11.409 11.409 0 0 0-8.059-3.333h-60.784a11.405 11.405 0 0 0-8.059 3.333 11.363 11.363 0 0 0 0 16.09 11.405 11.405 0 0 0 8.059 3.333ZM470.585 448.225h-60.784a11.409 11.409 0 0 0-8.059 3.332 11.367 11.367 0 0 0 0 16.091 11.409 11.409 0 0 0 8.059 3.332h60.784c3.022 0 5.921-1.199 8.059-3.332a11.37 11.37 0 0 0 3.338-8.045 11.37 11.37 0 0 0-3.338-8.046 11.412 11.412 0 0 0-8.059-3.332ZM417.38 393.255a11.409 11.409 0 0 0 16.118 0l14.735-14.71 14.735 14.71a11.403 11.403 0 0 0 8.057 3.326 11.405 11.405 0 0 0 8.055-3.332 11.37 11.37 0 0 0 3.338-8.041 11.37 11.37 0 0 0-3.332-8.044l-14.735-14.71 14.735-14.71a11.372 11.372 0 0 0 3.332-8.044 11.37 11.37 0 0 0-3.338-8.041 11.41 11.41 0 0 0-16.112-.006l-14.735 14.71-14.735-14.71a11.41 11.41 0 0 0-16.113.006 11.37 11.37 0 0 0-3.338 8.041 11.369 11.369 0 0 0 3.333 8.044l14.735 14.71-14.735 14.71a11.366 11.366 0 0 0 0 16.091Z"/></svg>